0
SECTION
2
HEADER
9
$ACADVER
1
AC1009
9
$INSUNITS
70
4
0
ENDSEC
0
SECTION
2
TABLES
0
TABLE
2
LAYER
70
6
0
LAYER
2
AUTH_OUTLINE
70
0
62
7
6
CONTINUOUS
0
LAYER
2
REFERENCE_CENTERLINES
70
0
62
8
6
CENTER
0
LAYER
2
PROVISIONAL_STRINGS
70
0
62
4
6
CONTINUOUS
0
LAYER
2
PROVISIONAL_BRIDGE
70
0
62
2
6
CONTINUOUS
0
LAYER
2
UNRESOLVED_FRETS
70
0
62
1
6
CONTINUOUS
0
LAYER
2
TEXT_NOTES
70
0
62
3
6
CONTINUOUS
0
ENDTAB
0
ENDSEC
0
SECTION
2
ENTITIES
999
L2 prototype scaffold. Units are millimeters. Not final CNC geometry.
0
POLYLINE
8
AUTH_OUTLINE
66
1
70
1
0
VERTEX
8
AUTH_OUTLINE
10
0
20
0
0
VERTEX
8
AUTH_OUTLINE
10
70
20
55
0
VERTEX
8
AUTH_OUTLINE
10
105
20
170
0
VERTEX
8
AUTH_OUTLINE
10
92
20
315
0
VERTEX
8
AUTH_OUTLINE
10
38
20
435
0
VERTEX
8
AUTH_OUTLINE
10
24
20
690
0
VERTEX
8
AUTH_OUTLINE
10
-24
20
690
0
VERTEX
8
AUTH_OUTLINE
10
-38
20
435
0
VERTEX
8
AUTH_OUTLINE
10
-92
20
315
0
VERTEX
8
AUTH_OUTLINE
10
-105
20
170
0
VERTEX
8
AUTH_OUTLINE
10
-70
20
55
0
VERTEX
8
AUTH_OUTLINE
10
0
20
0
0
SEQEND
0
LINE
8
REFERENCE_CENTERLINES
10
0
20
-20
11
0
21
715
0
LINE
8
REFERENCE_CENTERLINES
10
-120
20
315
11
120
21
315
0
LINE
8
REFERENCE_CENTERLINES
10
-120
20
170
11
120
21
170
0
LINE
8
PROVISIONAL_STRINGS
10
-18
20
675
11
-38
21
95
0
LINE
8
PROVISIONAL_STRINGS
10
-6
20
675
11
-13
21
95
0
LINE
8
PROVISIONAL_STRINGS
10
6
20
675
11
13
21
95
0
LINE
8
PROVISIONAL_STRINGS
10
18
20
675
11
38
21
95
0
LWPOLYLINE
8
PROVISIONAL_BRIDGE
90
4
70
1
10
-48
20
88
10
48
20
88
10
48
20
108
10
-48
20
108
0
LINE
8
UNRESOLVED_FRETS
10
-32
20
630
11
32
21
630
0
LINE
8
UNRESOLVED_FRETS
10
-36
20
590
11
36
21
590
0
LINE
8
UNRESOLVED_FRETS
10
-42
20
540
11
42
21
540
0
LINE
8
UNRESOLVED_FRETS
10
-52
20
480
11
52
21
480
0
LINE
8
UNRESOLVED_FRETS
10
-64
20
415
11
64
21
415
0
TEXT
8
TEXT_NOTES
10
-145
20
735
40
12
1
PIPA L2 PROTOTYPE: NOT FINAL CNC GEOMETRY
0
TEXT
8
TEXT_NOTES
10
-145
20
-45
40
10
1
Rear shell, pegbox side profile, and final fret geometry unresolved.
0
ENDSEC
0
EOF
